<svg xmlns="http://www.w3.org/2000/svg" viewBox="0 0 180 180" width="180" height="180">
  <rect width="180" height="180" rx="36" fill="#0d4f4f"/>
  <path d="M90 22L28 50v45c0 45 28 77 62 85 34-8 62-40 62-85V50L90 22z" fill="#1a7a7a"/>
  <path d="M90 32L35 56v41c0 40 25 70 55 77 30-7 55-37 55-77V56L90 32z" fill="#0d4f4f"/>
  <path d="M62 59c0-5 4-8 8-8h6c5 0 8 4 8 8v20h22c5 0 8 4 8 8v28c0 5-4 8-8 8h-6c-5 0-8-4-8-8V95H70c-5 0-8-4-8-8V59z" fill="#5de0d6"/>
  <path d="M121 59a28 28 0 0 1 0 28" stroke="#5de0d6" stroke-width="4.5" fill="none" stroke-linecap="round" opacity="0.7"/>
  <path d="M132 51a42 42 0 0 1 0 44" stroke="#5de0d6" stroke-width="4.5" fill="none" stroke-linecap="round" opacity="0.4"/>
</svg>
