<svg xmlns="http://www.w3.org/2000/svg" viewBox="0 0 192 192" width="192" height="192">
  <rect width="192" height="192" rx="38" fill="#0d4f4f"/>
  <path d="M96 24L30 54v48c0 48 30 82 66 90 36-8 66-42 66-90V54L96 24z" fill="#1a7a7a"/>
  <path d="M96 34L38 60v44c0 43 27 74 58 80 31-6 58-37 58-80V60L96 34z" fill="#0d4f4f"/>
  <path d="M66 63c0-5 4-9 9-9h6c5 0 9 4 9 9v21h24c5 0 9 4 9 9v30c0 5-4 9-9 9h-6c-5 0-9-4-9-9v-21H75c-5 0-9-4-9-9V63z" fill="#5de0d6"/>
  <path d="M129 63a30 30 0 0 1 0 30" stroke="#5de0d6" stroke-width="5" fill="none" stroke-linecap="round" opacity="0.7"/>
  <path d="M141 54a45 45 0 0 1 0 48" stroke="#5de0d6" stroke-width="5" fill="none" stroke-linecap="round" opacity="0.4"/>
</svg>
