<svg xmlns="http://www.w3.org/2000/svg" viewBox="0 0 32 32">
  <path d="M16 1.5L3.5 6.5v9c0 8.5 5.5 14.5 12.5 16 7-1.5 12.5-7.5 12.5-16v-9L16 1.5z" fill="#1a7a7a" stroke="#1a7a7a" stroke-width="0.5" stroke-linejoin="round"/>
  <path d="M16 3L5 7.5v8.25c0 7.5 4.75 12.75 11 14.25 6.25-1.5 11-6.75 11-14.25V7.5L16 3z" fill="#0d4f4f"/>
  <path d="M11 10.5c0-.83.67-1.5 1.5-1.5h1c.83 0 1.5.67 1.5 1.5v3.5h4c.83 0 1.5.67 1.5 1.5v5c0 .83-.67 1.5-1.5 1.5h-1c-.83 0-1.5-.67-1.5-1.5V17h-4c-.83 0-1.5-.67-1.5-1.5v-5z" fill="#5de0d6"/>
  <path d="M21.5 10.5a5 5 0 0 1 0 5" stroke="#5de0d6" stroke-width="1" fill="none" stroke-linecap="round" opacity="0.7"/>
  <path d="M23.5 9a7.5 7.5 0 0 1 0 8" stroke="#5de0d6" stroke-width="1" fill="none" stroke-linecap="round" opacity="0.4"/>
</svg>
